<?xml version="1.0" encoding="utf-8"?>
<svg version="1.1" xmlns="http://www.w3.org/2000/svg" x="0px" y="0px"
	 viewBox="0 0 16 16" style="enable-background:new 0 0 16 16;" xml:space="preserve">
<g>
	<path fill="#1D2D3E" d="M16,4.7c-0.3-1.4-1.3-0.5-1.3-0.5L12,10.8H6.6L3.3,2.3L0.5,2.1c-1,0.5-0.1,1.5-0.1,1.5l1.9,0.1l3.5,8.5h7.3 l0.5-1.4L16,4.7z"/>
	<path fill="#1D2D3E" d="M6.7,12.6c-0.6,0-1.2,0.5-1.2,1.2c0,0.6,0.5,1.2,1.2,1.2s1.2-0.5,1.2-1.2C7.9,13.2,7.4,12.6,6.7,12.6z"/>
	<path fill="#1D2D3E" d="M12.1,12.6c-0.6,0-1.2,0.5-1.2,1.2c0,0.6,0.5,1.2,1.2,1.2s1.2-0.5,1.2-1.2C13.3,13.2,12.7,12.6,12.1,12.6z"/>
</g>
<g>
	<rect x="11" y="1" fill="#3A7CAE" width="1" height="1"/>
	<rect x="7" y="1" fill="#3A7CAE" width="1" height="1"/>
	<path fill="#3A7CAE" d="M12,2v1h-1V2H8v1H7V2H6v2v3v1h1h5h1V7V4V2H12z M12,7H7V4h5V7z"/>
</g>
</svg>
