<?xml version="1.0" encoding="utf-8"?>
<!-- Generator: Adobe Illustrator 22.0.1, SVG Export Plug-In . SVG Version: 6.00 Build 0)  -->
<svg version="1.1" id="Ebene_1" xmlns="http://www.w3.org/2000/svg" xmlns:xlink="http://www.w3.org/1999/xlink" x="0px" y="0px"
	 viewBox="0 0 16 16" style="enable-background:new 0 0 16 16;" xml:space="preserve">
<style type="text/css">
	.st0{fill:#EFEFEF;}
	.st1{opacity:0.65;fill:#FFFFFF;enable-background:new    ;}
	.st2{opacity:0.2;enable-background:new    ;}
	.st3{fill:#999999;}
	.st4{fill:#FF8700;}
	.st5{fill:#3A7CAE;}
	.st6{fill:#FFFFFF;}
</style>
<path class="st0" d="M2,0v16h12V4l-4-4H2z"/>
<path class="st1" d="M10,4V0l4,4H10z"/>
<path class="st2" d="M13,5v5L9,5H13z"/>
<path class="st3" d="M2,0v16h12V4l-4-4H2z M3,1h6v4h4v10H3V1z M10,1.4L12.6,4H10V1.4z"/>
<g>
	<g>
		<rect x="23.6" y="8.3" class="st4" width="0.7" height="0.7"/>
		<rect x="20.6" y="8.3" class="st4" width="0.7" height="0.7"/>
		<path class="st4" d="M24.4,9.1v0.8h-0.8V9.1h-2.2v0.8h-0.8V9.1h-0.7v1.5v2.2v0.8h0.8h3.7h0.8v-0.8v-2.2V9.1H24.4z M24.4,12.8h-3.8
			v-2.2h3.8V12.8z"/>
	</g>
</g>
<g>
	<g>
		<path class="st5" d="M14.6,6.5h-0.5v1.4h-0.9V6.5V5.6h-0.9v0.9H10V5.6H9.1v2.3H8.2V6.5H7.6C7,6.5,6.5,7,6.5,7.6v7
			c0,0.6,0.5,1.1,1.1,1.1h7c0.6,0,1.1-0.5,1.1-1.1v-7C15.7,7,15.2,6.5,14.6,6.5z"/>
		<path class="st6" d="M13.3,5.6v0.9v1.4h0.9V6.5h0.5c0.6,0,1.1,0.5,1.1,1.1v7c0,0.6-0.5,1.1-1.1,1.1h-7c-0.6,0-1.1-0.5-1.1-1.1v-7
			C6.5,7,7,6.5,7.6,6.5h0.6v1.4h0.9V5.6H10v0.9h2.4V5.6H13.3 M13.7,5.2h-0.4h-0.9H12v0.4v0.5h-1.6V5.6V5.2H10H9.1H8.7v0.4v1.9H8.6
			v-1V6.1H8.2H7.6c-0.8,0-1.5,0.7-1.5,1.5v7c0,0.8,0.7,1.5,1.5,1.5h7c0.8,0,1.5-0.7,1.5-1.5v-7c0-0.8-0.7-1.5-1.5-1.5h-0.5h-0.4v0.4
			v1h-0.1v-1V5.6V5.2L13.7,5.2z"/>
	</g>
	<path class="st6" d="M15.7,9.7H6.5V9.1h9.2V9.7z M9.6,11.1H8.3v1.3h1.3V11.1z M11.8,11.1h-1.3v1.3h1.3V11.1z M14,11.1h-1.3v1.3H14
		V11.1z M14,13.1h-1.3v1.3H14V13.1z M11.8,13.1h-1.3v1.3h1.3V13.1z M9.6,13.1H8.3v1.3h1.3V13.1z"/>
</g>
</svg>
