<?xml version="1.0" encoding="utf-8"?>
<svg version="1.1" id="Ebene_1" xmlns="http://www.w3.org/2000/svg" xmlns:xlink="http://www.w3.org/1999/xlink" x="0px" y="0px"
	 viewBox="0 0 16 16" style="enable-background:new 0 0 16 16;" xml:space="preserve">
<path fill="#AAAAAA" d="M16,4v10H0V2h7l1.3,2H16z"/>
<path opacity="0.43" d="M16,5H8.3L7,7H0V4h16V5z"/>
<g>
	<path fill="#3A7CAE" d="M14.5,6.4H14v1.4h-0.9V6.4V5.5h-0.9v0.9H9.9V5.5H9v2.3H8.1V6.4H7.5c-0.6,0-1.1,0.5-1.1,1.1v7
		c0,0.6,0.5,1.1,1.1,1.1h7c0.6,0,1.1-0.5,1.1-1.1v-7C15.6,6.9,15.1,6.4,14.5,6.4z"/>
	<path fill="#FFFFFF" d="M13.2,5.5v0.9v1.4h0.9V6.4h0.5c0.6,0,1.1,0.5,1.1,1.1v7c0,0.6-0.5,1.1-1.1,1.1h-7c-0.6,0-1.1-0.5-1.1-1.1v-7
		c0-0.6,0.5-1.1,1.1-1.1h0.6v1.4H9V5.5h0.9v0.9h2.4V5.5H13.2 M13.6,5.1h-0.4h-0.9h-0.4v0.4V6h-1.6V5.5V5.1H9.9H9H8.6v0.4v1.9H8.5v-1
		V6H8.1H7.5C6.7,6,6,6.7,6,7.5v7C6,15.3,6.7,16,7.5,16h7c0.8,0,1.5-0.7,1.5-1.5v-7C16,6.7,15.3,6,14.5,6H14h-0.4v0.4v1h-0.1v-1V5.5
		V5.1H13.6z"/>
	<path fill="#FFFFFF" d="M15.6,9.6H6.4V9h9.2V9.6z M9.5,11H8.2v1.3h1.3V11z M11.7,11h-1.3v1.3h1.3V11z M13.8,11h-1.3v1.3h1.3V11z
		 M13.8,13h-1.3v1.3h1.3V13z M11.7,13h-1.3v1.3h1.3V13z M9.5,13H8.2v1.3h1.3V13z"/>
</g>
</svg>
