<?xml version="1.0" encoding="utf-8"?>
<!-- Generator: Adobe Illustrator 22.0.1, SVG Export Plug-In . SVG Version: 6.00 Build 0)  -->
<svg version="1.1" id="Ebene_1" xmlns="http://www.w3.org/2000/svg" xmlns:xlink="http://www.w3.org/1999/xlink" x="0px" y="0px"
	 viewBox="0 0 16 16" style="enable-background:new 0 0 16 16;" xml:space="preserve">
<style type="text/css">
	.st0{fill:#3A7CAE;}
	.st1{fill:#FFFFFF;}
</style>
<path class="st0" d="M0,0h16v16H0V0z"/>
<g>
	<g>
		<path class="st0" d="M11.8,3.5h-0.5V5h-1V3.5v-1h-1v1H6.7v-1h-1V5h-1V3.5H4.2C3.5,3.5,3,4,3,4.7v7.6c0,0.6,0.5,1.2,1.2,1.2h7.6
			c0.6,0,1.2-0.5,1.2-1.2V4.7C13,4,12.5,3.5,11.8,3.5z"/>
		<path class="st1" d="M10.3,2.5v1V5h1V3.5h0.5C12.5,3.5,13,4,13,4.7v7.6c0,0.6-0.5,1.2-1.2,1.2H4.2c-0.6,0-1.2-0.5-1.2-1.2V4.7
			C3,4,3.5,3.5,4.2,3.5h0.6V5h1V2.5h1v1h2.6v-1H10.3"/>
	</g>
	<path class="st0" d="M13,6.9H3V6.3h10V6.9z M6.4,8.5H4.9v1.4h1.4V8.5z M8.7,8.5H7.3v1.4h1.4V8.5z M11.1,8.5H9.6v1.4h1.4V8.5z
		 M11.1,10.7H9.6v1.4h1.4V10.7z M8.7,10.7H7.3v1.4h1.4V10.7z M6.4,10.7H4.9v1.4h1.4V10.7z"/>
</g>
</svg>
