<svg enable-background="new 0 0 16 16" viewBox="0 0 16 16" xmlns="http://www.w3.org/2000/svg"><path d="m0 0h16v16h-16z" fill="#ff8700"/><path d="m13.30357 3.28571c.13044 0 .19643.06599.19643.19643v9.82143c0 .13044-.06599.19643-.19643.19643h-10.60714c-.13198 0-.19643-.06599-.19643-.19643v-9.82143c0-.13044.06445-.19643.19643-.19643h1.375v1.0067c0 .26242.11816.488.35603.67522.23632.18876.51102.28237.82254.28237.30999 0 .58468-.09361.82254-.28237.23633-.18722.35603-.41281.35603-.67522v-1.0067h3.14286v1.0067c0 .26242.12277.488.3683.67522.24554.18876.5233.28237.83482.28237.29464 0 .56013-.09361.79799-.28237.23633-.18722.35603-.41281.35603-.67522v-1.0067zm-.98214 9.03572v-6.28572h-8.64286v6.28571h8.64286zm-6.5067-7.68527c-.14732.14732-.33607.22098-.56473.22098-.23019 0-.41741-.07366-.56473-.22098s-.22098-.33454-.22098-.56473v-.78572c0-.22866.07366-.41741.22098-.56473s.33454-.22098.56473-.22098c.22866 0 .41741.07366.56473.22098s.22098.33608.22098.56473v.78571c0 .2302-.07366.41742-.22098.56474zm5.5 0c-.14732.14732-.33608.22098-.56473.22098-.23019 0-.41741-.07366-.56473-.22098s-.22098-.33454-.22098-.56473v-.78572c0-.22866.07366-.41741.22098-.56473s.33454-.22098.56473-.22098c.22865 0 .41741.07366.56473.22098s.22098.33608.22098.56473v.78571c0 .2302-.07366.41742-.22098.56474z" fill="#fff"/></svg>