<?xml version="1.0" encoding="utf-8"?>
<svg version="1.1" xmlns="http://www.w3.org/2000/svg" x="0px" y="0px"
	 viewBox="0 0 16 16" style="enable-background:new 0 0 16 16;" xml:space="preserve">
<path fill="#1D2D3E" d="M16,4.7c-0.3-1.4-1.3-0.5-1.3-0.5L12,10.8H6.6L3.3,2.3L0.5,2.1c-1,0.5-0.1,1.5-0.1,1.5l1.9,0.1l3.5,8.5h7.3
	l0.5-1.4L16,4.7z M6.7,12.6c-0.6,0-1.2,0.5-1.2,1.2C5.5,14.4,6,15,6.7,15s1.2-0.5,1.2-1.2C7.9,13.2,7.4,12.6,6.7,12.6z M12.1,12.6
	c-0.6,0-1.2,0.5-1.2,1.2c0,0.6,0.5,1.2,1.2,1.2s1.2-0.5,1.2-1.2C13.3,13.2,12.7,12.6,12.1,12.6z"/>
<path fill="#3A7CAE" d="M6.1,3.8v3.6c0,0.5,0.4,0.8,0.8,0.8h4.8c0.5,0,0.8-0.4,0.8-0.8V3.8H6.1z M10.3,4.7h0.9v0.9h-0.9V4.7z M7.4,4.7
	h0.9v0.9H7.4V4.7z M8.2,7.1H7.4V6.2h0.9V7.1z M9.8,7.1H8.9V6.2h0.9V7.1z M9.8,5.6H8.9V4.7h0.9V5.6z M11.2,7.1h-0.9V6.2h0.9V7.1z
	 M6.1,3.4V2.5c0-0.4,0.3-0.8,0.8-0.8h0.4v0.9h0.6V1.2h0.6v0.6h1.7V1.2h0.5v0.6v0.9h0.6V1.8h0.3c0.4,0,0.8,0.3,0.8,0.8v0.8H6.1z"/>
</svg>
