<?xml version="1.0" encoding="utf-8"?>
<!-- Generator: Adobe Illustrator 22.1.0, SVG Export Plug-In . SVG Version: 6.00 Build 0)  -->
<svg version="1.1" id="Layer_1" xmlns="http://www.w3.org/2000/svg" xmlns:xlink="http://www.w3.org/1999/xlink" x="0px" y="0px"
	 viewBox="0 0 16 16" style="enable-background:new 0 0 16 16;" xml:space="preserve">
<style type="text/css">
	.st0{fill:#AAAAAA;}
	.st1{opacity:0.43;enable-background:new    ;}
	.st2{fill:#1D2D3E;}
	.st3{fill:#FF8700;}
</style>
<path class="st0" d="M16,2v14H0V0h7l1.3,2H16z"/>
<path class="st1" d="M16,3H8.3L7,5H0V2h16V3z"/>
<g>
	<g>
		<path class="st2" d="M14,7.7c-0.2-1.1-1-0.4-1-0.4l-2,5H6.9L4.5,6L2.4,5.9C1.6,6.3,2.3,7,2.3,7L3.7,7l2.6,6.4h5.5l0.4-1.1L14,7.7z
			"/>
		<path class="st2" d="M7.1,13.7c-0.5,0-0.9,0.4-0.9,0.9c0,0.5,0.4,0.9,0.9,0.9s0.9-0.4,0.9-0.9C7.9,14.1,7.5,13.7,7.1,13.7z"/>
		<path class="st2" d="M11.1,13.7c-0.5,0-0.9,0.4-0.9,0.9c0,0.5,0.4,0.9,0.9,0.9s0.9-0.4,0.9-0.9C11.9,14.1,11.5,13.7,11.1,13.7z"/>
	</g>
	<g>
		<rect x="10.2" y="5" class="st3" width="0.7" height="0.7"/>
		<rect x="7.2" y="5" class="st3" width="0.7" height="0.7"/>
		<path class="st3" d="M11,5.8v0.8h-0.8V5.8H8v0.8H7.2V5.8H6.5v1.5v2.2v0.8h0.8H11h0.8V9.5V7.3V5.8H11z M11,9.5H7.2V7.3H11V9.5z"/>
	</g>
</g>
</svg>
