<?xml version="1.0" encoding="utf-8"?>
<!-- Generator: Adobe Illustrator 22.1.0, SVG Export Plug-In . SVG Version: 6.00 Build 0)  -->
<svg version="1.1" id="Layer_1" xmlns="http://www.w3.org/2000/svg" xmlns:xlink="http://www.w3.org/1999/xlink" x="0px" y="0px"
	 viewBox="0 0 16 16" style="enable-background:new 0 0 16 16;" xml:space="preserve">
<style type="text/css">
	.st0{fill:#EFEFEF;}
	.st1{opacity:0.65;fill:#FFFFFF;enable-background:new    ;}
	.st2{fill:#999999;}
	.st3{fill:#1D2D3E;}
	.st4{fill:#FF8700;}
</style>
<path class="st0" d="M2,0v16h12V4l-4-4H2z"/>
<path class="st1" d="M10,4V0l4,4H10z"/>
<path class="st2" d="M2,0v16h12V4l-4-4H2z M3,1h6v4h4v10H3V1z M10,1.4L12.6,4H10V1.4z"/>
<text transform="matrix(1 0 0 1 500 350)"><tspan x="0" y="0" style="font-family:'MyriadPro-Regular'; font-size:12px;">&lt;!-- Generator: Adobe Illustrator 22.1.0, SVG Export Plug-In  --&gt;</tspan><tspan x="0" y="14.4" style="font-family:'MyriadPro-Regular'; font-size:12px;">&lt;svg version=&quot;1.1&quot;</tspan><tspan x="0" y="28.8" style="font-family:'MyriadPro-Regular'; font-size:12px; letter-spacing:33;">	</tspan><tspan x="36" y="28.8" style="font-family:'MyriadPro-Regular'; font-size:12px;"> xmlns=&quot;http://www.w3.org/2000/svg&quot; xmlns:xlink=&quot;http://www.w3.org/1999/xlink&quot; xmlns:a=&quot;http://ns.adobe.com/AdobeSVGViewerExtensions/3.0/&quot;</tspan><tspan x="0" y="43.2" style="font-family:'MyriadPro-Regular'; font-size:12px; letter-spacing:33;">	</tspan><tspan x="36" y="43.2" style="font-family:'MyriadPro-Regular'; font-size:12px;"> x=&quot;0px&quot; y=&quot;0px&quot; width=&quot;12.2px&quot; height=&quot;10.7px&quot; viewBox=&quot;0 0 12.2 10.7&quot; style=&quot;enable-background:new 0 0 12.2 10.7;&quot;</tspan><tspan x="0" y="57.6" style="font-family:'MyriadPro-Regular'; font-size:12px; letter-spacing:33;">	</tspan><tspan x="36" y="57.6" style="font-family:'MyriadPro-Regular'; font-size:12px;"> xml:space=&quot;preserve&quot;&gt;</tspan><tspan x="0" y="72" style="font-family:'MyriadPro-Regular'; font-size:12px;">&lt;style type=&quot;text/css&quot;&gt;</tspan><tspan x="0" y="86.4" style="font-family:'MyriadPro-Regular'; font-size:12px; letter-spacing:33;">	</tspan><tspan x="36" y="86.4" style="font-family:'MyriadPro-Regular'; font-size:12px;">.st0{fill:#1D2D3E;}</tspan><tspan x="0" y="100.8" style="font-family:'MyriadPro-Regular'; font-size:12px; letter-spacing:33;">	</tspan><tspan x="36" y="100.8" style="font-family:'MyriadPro-Regular'; font-size:12px;">.st1{fill:#3A7CAE;}</tspan><tspan x="0" y="115.2" style="font-family:'MyriadPro-Regular'; font-size:12px;">&lt;/style&gt;</tspan><tspan x="0" y="129.6" style="font-family:'MyriadPro-Regular'; font-size:12px;">&lt;defs&gt;</tspan><tspan x="0" y="144" style="font-family:'MyriadPro-Regular'; font-size:12px;">&lt;/defs&gt;</tspan><tspan x="0" y="158.4" style="font-family:'MyriadPro-Regular'; font-size:12px;">&lt;g&gt;</tspan><tspan x="0" y="172.8" style="font-family:'MyriadPro-Regular'; font-size:12px; letter-spacing:33;">	</tspan><tspan x="36" y="172.8" style="font-family:'MyriadPro-Regular'; font-size:12px;">&lt;g&gt;</tspan><tspan x="0" y="187.2" style="font-family:'MyriadPro-Regular'; font-size:12px; letter-spacing:33;">		</tspan><tspan x="72" y="187.2" style="font-family:'MyriadPro-Regular'; font-size:12px;">&lt;path class=&quot;st0&quot; d=&quot;M12.2,2.8c-0.2-1.1-1-0.4-1-0.4l-2,5.1H5L2.5,1L0.4,0.9C-0.4,1.3,0.3,2,0.3,2l1.4,0.1l2.7,6.5H10l0.4-1.1</tspan><tspan x="0" y="201.6" style="font-family:'MyriadPro-Regular'; font-size:12px; letter-spacing:33;">			</tspan><tspan x="108" y="201.6" style="font-family:'MyriadPro-Regular'; font-size:12px;">L12.2,2.8z&quot;/&gt;</tspan><tspan x="0" y="216" style="font-family:'MyriadPro-Regular'; font-size:12px; letter-spacing:33;">		</tspan><tspan x="72" y="216" style="font-family:'MyriadPro-Regular'; font-size:12px;">&lt;path class=&quot;st0&quot; d=&quot;M5.1,8.9c-0.5,0-0.9,0.4-0.9,0.9c0,0.5,0.4,0.9,0.9,0.9S6,10.3,6,9.8C6,9.3,5.6,8.9,5.1,8.9z&quot;/&gt;</tspan><tspan x="0" y="230.4" style="font-family:'MyriadPro-Regular'; font-size:12px; letter-spacing:33;">		</tspan><tspan x="72" y="230.4" style="font-family:'MyriadPro-Regular'; font-size:12px;">&lt;path class=&quot;st0&quot; d=&quot;M9.2,8.9c-0.5,0-0.9,0.4-0.9,0.9c0,0.5,0.4,0.9,0.9,0.9c0.5,0,0.9-0.4,0.9-0.9C10.1,9.3,9.7,8.9,9.2,8.9z&quot;/&gt;</tspan><tspan x="0" y="244.8" style="font-family:'MyriadPro-Regular'; font-size:12px; letter-spacing:33;">	</tspan><tspan x="36" y="244.8" style="font-family:'MyriadPro-Regular'; font-size:12px;">&lt;/g&gt;</tspan><tspan x="0" y="259.2" style="font-family:'MyriadPro-Regular'; font-size:12px; letter-spacing:33;">	</tspan><tspan x="36" y="259.2" style="font-family:'MyriadPro-Regular'; font-size:12px;">&lt;g&gt;</tspan><tspan x="0" y="273.6" style="font-family:'MyriadPro-Regular'; font-size:12px; letter-spacing:33;">		</tspan><tspan x="72" y="273.6" style="font-family:'MyriadPro-Regular'; font-size:12px;">&lt;rect x=&quot;8.4&quot; class=&quot;st1&quot; width=&quot;0.8&quot; height=&quot;0.8&quot;/&gt;</tspan><tspan x="0" y="288" style="font-family:'MyriadPro-Regular'; font-size:12px; letter-spacing:33;">		</tspan><tspan x="72" y="288" style="font-family:'MyriadPro-Regular'; font-size:12px;">&lt;rect x=&quot;5.3&quot; class=&quot;st1&quot; width=&quot;0.8&quot; height=&quot;0.8&quot;/&gt;</tspan><tspan x="0" y="302.4" style="font-family:'MyriadPro-Regular'; font-size:12px; letter-spacing:33;">		</tspan><tspan x="72" y="302.4" style="font-family:'MyriadPro-Regular'; font-size:12px;">&lt;path class=&quot;st1&quot; d=&quot;M9.2,0.8v0.8H8.4V0.8H6.1v0.8H5.3V0.8H4.6v1.5v2.3v0.8h0.8h3.8h0.8V4.6V2.3V0.8H9.2z M9.2,4.6H5.3V2.3h3.8</tspan><tspan x="0" y="316.8" style="font-family:'MyriadPro-Regular'; font-size:12px; letter-spacing:33;">			</tspan><tspan x="108" y="316.8" style="font-family:'MyriadPro-Regular'; font-size:12px;">V4.6z&quot;/&gt;</tspan><tspan x="0" y="331.2" style="font-family:'MyriadPro-Regular'; font-size:12px; letter-spacing:33;">	</tspan><tspan x="36" y="331.2" style="font-family:'MyriadPro-Regular'; font-size:12px;">&lt;/g&gt;</tspan><tspan x="0" y="345.6" style="font-family:'MyriadPro-Regular'; font-size:12px;">&lt;/g&gt;</tspan><tspan x="0" y="360" style="font-family:'MyriadPro-Regular'; font-size:12px;">&lt;/svg&gt;</tspan></text>
<g>
	<g>
		<path class="st3" d="M14,7.7c-0.2-1.1-1-0.4-1-0.4l-2,5H6.9L4.5,6L2.4,5.9C1.6,6.3,2.3,7,2.3,7L3.7,7l2.6,6.4h5.5l0.4-1.1L14,7.7z
			"/>
		<path class="st3" d="M7.1,13.7c-0.5,0-0.9,0.4-0.9,0.9c0,0.5,0.4,0.9,0.9,0.9s0.9-0.4,0.9-0.9C7.9,14.1,7.5,13.7,7.1,13.7z"/>
		<path class="st3" d="M11.1,13.7c-0.5,0-0.9,0.4-0.9,0.9c0,0.5,0.4,0.9,0.9,0.9s0.9-0.4,0.9-0.9C11.9,14.1,11.5,13.7,11.1,13.7z"/>
	</g>
	<g>
		<rect x="10.2" y="5" class="st4" width="0.7" height="0.7"/>
		<rect x="7.2" y="5" class="st4" width="0.7" height="0.7"/>
		<path class="st4" d="M11,5.8v0.8h-0.8V5.8H8v0.8H7.2V5.8H6.5v1.5v2.2v0.8h0.8H11h0.8V9.5V7.3V5.8H11z M11,9.5H7.2V7.3H11V9.5z"/>
	</g>
</g>
</svg>
