<svg enable-background="new 0 0 16 16" viewBox="0 0 16 16" xmlns="http://www.w3.org/2000/svg"><path d="m0 0h16v16h-16z" fill="#ff8700"/><path d="m14 14h-6-6c0-.54102.01953-.95703.0625-1.25.08203-.41602.92578-.92578 2.53125-1.53125.25-.08203.55078-.1875.90625-.3125.47852-.16602.75977-.29688.84375-.39062.08203-.09375.125-.36914.125-.82812 0-.08203 0-.14453 0-.1875 0-.25-.09375-.49414-.28125-.73438-.1875-.23829-.33398-.66016-.4375-1.26563-.04297-.20703-.10547-.375-.1875-.5-.08398-.125-.16797-.375-.25-.75-.0625-.1875-.06836-.36328-.01562-.53125.05078-.16602.07812-.26953.07812-.3125-.04297-.33203-.08398-.67578-.125-1.03125-.04297-.47852.16602-.99414.625-1.54688.45703-.55078 1.16602-.82812 2.125-.82812.95703 0 1.66602.27734 2.125.82812.45703.55273.66602 1.06836.625 1.54688-.04297.35547-.08398.69922-.125 1.03125 0 .04297.02539.14648.07812.3125.05079.16797.04688.34375-.01562.53125-.08398.375-.16797.625-.25.75-.08398.125-.14648.29297-.1875.5-.10547.60547-.25 1.02734-.4375 1.26562-.1875.24024-.28125.48438-.28125.73438 0 .625.0625.98047.1875 1.0625.04102.04297.55078.24023 1.53125.59375.04102.02148.09375.04297.15625.0625 1.60352.60547 2.44727 1.11523 2.53125 1.53125z" fill="#fff"/></svg>