<?xml version="1.0" encoding="utf-8"?>
<!-- Generator: Adobe Illustrator 22.1.0, SVG Export Plug-In . SVG Version: 6.00 Build 0)  -->
<svg version="1.1" id="Layer_1" xmlns="http://www.w3.org/2000/svg" xmlns:xlink="http://www.w3.org/1999/xlink" x="0px" y="0px"
	 viewBox="0 0 16 16" style="enable-background:new 0 0 16 16;" xml:space="preserve">
<path style="fill:#FF8700;" d="M0,0h16v16H0V0z"/>
<g>
	<path style="fill:#FFFFFF;" d="M9.3395529,1.0000926L0.8545063,9.4841013l5.6570435,5.6569824l8.4849854-8.4849854V1.0000926
		H9.3395529z M14.0065451,6.2320871l-7.4949951,7.4949951l-4.243042-4.242981l7.4950562-7.4940186h4.242981V6.2320871z"/>
	<path style="fill:#FFFFFF;" d="M10.0445089,5.9501047c0.6834717,0.684021,1.7919922,0.6844482,2.4760132,0.0009766
		c0.68396-0.6834717,0.6844482-1.7919922,0.0009766-2.4760129c-0.6834717-0.68396-1.7919922-0.6844482-2.4760132-0.0009766
		C9.3615255,4.1575632,9.3610373,5.2660837,10.0445089,5.9501047z M10.7540426,4.1631784
		c0.2980347-0.2876585,0.7728271-0.2791746,1.0604858,0.0189209c0.2805786,0.2907715,0.2803345,0.7515259-0.0004883,1.0420532
		c-0.2879028,0.2977905-0.7627563,0.3058472-1.0605469,0.0179443c-0.0062256-0.0060425-0.0123901-0.012207-0.0184326-0.0184326
		C10.447463,4.9255686,10.4559469,4.4507761,10.7540426,4.1631784z"/>
	
		<rect x="4.3644838" y="7.3814235" transform="matrix(0.7071155 -0.7070981 0.7070981 0.7071155 -4.446095 7.5286574)" style="fill:#FFFFFF;" width="5.0010414" height="3.4998205"/>
</g>
</svg>
