<?xml version="1.0" encoding="utf-8"?>
<svg version="1.1" id="Ebene_1" xmlns="http://www.w3.org/2000/svg" xmlns:xlink="http://www.w3.org/1999/xlink" x="0px" y="0px"
	 viewBox="0 0 16 16" style="enable-background:new 0 0 16 16;" xml:space="preserve">
<g>
	<g>
		<path fill="#3A7CAE" d="M11,0.9v1.3v1.9h1.3V2.2h0.6c0.9,0,1.6,0.6,1.6,1.6v9.8c0,0.8-0.6,1.6-1.6,1.6H3.1c-0.8,0-1.6-0.6-1.6-1.6
			V3.7c0-0.9,0.6-1.6,1.6-1.6h0.8v1.9h1.3V0.9h1.3v1.3h3.4V0.9H11"/>
	</g>
	<path fill="#FFFFFF" d="M14.5,6.2H1.5V5.4h12.9V6.2z M5.9,8.2H4v1.8h1.8V8.2H5.9z M8.9,8.2H7.1v1.8h1.8V8.2z M12,8.2h-1.9v1.8h1.8V8.2
		H12z M12,11.1h-1.9v1.8h1.8v-1.8H12z M8.9,11.1H7.1v1.8h1.8V11.1z M5.9,11.1H4v1.8h1.8v-1.8H5.9z"/>
</g>
</svg>
