<?xml version="1.0" encoding="utf-8"?>
<svg version="1.1" id="Ebene_1" xmlns="http://www.w3.org/2000/svg" xmlns:xlink="http://www.w3.org/1999/xlink" x="0px" y="0px"
	 viewBox="0 0 16 16" style="enable-background:new 0 0 16 16;" xml:space="preserve">
<path fill="#3A7CAE" d="M14.8,14.8H8H1.2c0-0.6,0-1.1,0.1-1.4c0.1-0.5,1.1-1.1,2.9-1.7c0.3-0.1,0.6-0.2,1-0.4c0.5-0.2,0.9-0.3,1-0.4
	c0.1-0.1,0.1-0.4,0.1-0.9c0-0.1,0-0.2,0-0.2c0-0.3-0.1-0.6-0.3-0.8C5.7,8.6,5.6,8.1,5.4,7.4c0-0.2-0.1-0.4-0.2-0.6
	C5.1,6.7,5,6.4,4.9,6c-0.1-0.2-0.1-0.4,0-0.6C5,5.2,5,5.1,5,5.1c0-0.4-0.1-0.8-0.1-1.2c0-0.5,0.2-1.1,0.7-1.8C6.1,1.5,6.9,1.2,8,1.2
	c1.1,0,1.9,0.3,2.4,0.9c0.5,0.6,0.8,1.2,0.7,1.8c0,0.4-0.1,0.8-0.1,1.2c0,0,0,0.2,0.1,0.4c0.1,0.2,0.1,0.4,0,0.6
	c-0.1,0.4-0.2,0.7-0.3,0.9c-0.1,0.1-0.2,0.3-0.2,0.6c-0.1,0.7-0.3,1.2-0.5,1.4C9.8,9.1,9.7,9.4,9.7,9.7c0,0.7,0.1,1.1,0.2,1.2
	c0,0,0.6,0.3,1.7,0.7c0,0,0.1,0,0.2,0.1c1.8,0.7,2.8,1.3,2.9,1.7L14.8,14.8z"/>
</svg>
